<svg width="150" height="150" viewBox="0 0 150 150" fill="none" xmlns="http://www.w3.org/2000/svg">
<path fill-rule="evenodd" clip-rule="evenodd" d="M82.8659 19.9304C82.8866 19.9628 110.728 19.0254 110.684 19.0001C110.64 18.9747 112.096 28.3519 109.102 42.7244C106.108 57.0971 92.0757 70.384 89.0994 73.9849C89.0994 73.9849 99.159 56.377 98.4962 46.0738C97.8333 35.7706 85.2505 25.6314 82.7729 22.8145C80.2953 19.9977 82.8453 19.8981 82.8659 19.9304V19.9304Z" fill="#009688"/>
<path fill-rule="evenodd" clip-rule="evenodd" d="M66.026 103.384C65.9813 103.429 80.2345 93.3662 87.6105 84.8699C94.9866 76.3735 102.656 66.8399 103.892 64.1226C103.892 64.1226 89.0412 98.7691 86.4011 101.523C83.7609 104.278 76.2303 105.829 64.6304 105.989C61.7236 106.03 66.0707 103.339 66.026 103.384V103.384Z" fill="#FF9800"/>
<path fill-rule="evenodd" clip-rule="evenodd" d="M46.4885 57.8896C46.4459 57.8816 54.0505 52.2623 54.0244 52.3074C53.9984 52.3525 66.309 94.3674 66.3053 94.3601C66.3017 94.353 72.4735 89.0852 73.2831 88.4988C74.0927 87.9124 62.3361 101.537 62.3047 101.524C62.2734 101.511 46.531 57.8976 46.4885 57.8896V57.8896Z" fill="#F44336"/>
<path d="M41.6021 121.784L43.81 127.117L45.9686 121.784H48.551L44.3915 131.168H43.2186L39 121.784H41.6021Z" fill="#009688"/>
<path d="M54.3763 121.607C55.3356 121.607 56.2063 121.807 56.9883 122.208C57.7702 122.609 58.3747 123.171 58.8019 123.894C59.229 124.616 59.4425 125.435 59.4425 126.348C59.4425 127.301 59.2356 128.135 58.8216 128.851C58.4142 129.568 57.8096 130.133 57.008 130.547C56.2129 130.961 55.3356 131.168 54.3763 131.168C53.4103 131.168 52.5331 130.961 51.7446 130.547C50.956 130.133 50.3548 129.568 49.9408 128.851C49.5334 128.135 49.3297 127.301 49.3297 126.348C49.3297 125.421 49.5465 124.6 49.9802 123.884C50.4139 123.161 51.0185 122.602 51.7938 122.208C52.5692 121.807 53.43 121.607 54.3763 121.607ZM51.8727 126.348C51.8727 127.268 52.0961 128.004 52.5429 128.556C52.9963 129.101 53.6009 129.374 54.3565 129.374C55.1451 129.374 55.766 129.111 56.2194 128.585C56.6728 128.06 56.8995 127.307 56.8995 126.328C56.8995 125.395 56.6696 124.676 56.2096 124.17C55.7562 123.657 55.1385 123.401 54.3565 123.401C53.6206 123.401 53.0226 123.67 52.5627 124.209C52.1027 124.748 51.8727 125.461 51.8727 126.348Z" fill="#009688"/>
<path d="M63.8879 117.221V130.99H61.4631V117.221H63.8879Z" fill="#009688"/>
<path d="M68.8162 117.221V130.99H66.3914V117.221H68.8162ZM75.4989 121.784L71.7633 126.328L75.9622 130.99H72.8869L68.8556 126.328L72.6504 121.784H75.4989Z" fill="#009688"/>
<path d="M80.9792 121.607C82.3328 121.607 83.4039 122.041 84.1924 122.908C84.9809 123.775 85.3752 124.975 85.3752 126.506V126.87H78.86C78.9586 127.692 79.2641 128.326 79.7767 128.773C80.2958 129.213 81.0055 129.433 81.9057 129.433C82.4839 129.433 83.0392 129.334 83.5714 129.137C84.1103 128.934 84.6655 128.628 85.2372 128.221V130.024C84.1596 130.787 82.8519 131.168 81.3143 131.168C79.8621 131.168 78.676 130.731 77.7561 129.857C76.8361 128.983 76.3761 127.82 76.3761 126.368C76.3761 124.968 76.8 123.825 77.6476 122.938C78.5019 122.05 79.6124 121.607 80.9792 121.607ZM83.0983 125.402C83.0326 124.731 82.8289 124.209 82.4872 123.834C82.1455 123.453 81.6757 123.263 81.0777 123.263C80.4666 123.263 79.9738 123.443 79.5992 123.805C79.2313 124.166 78.998 124.699 78.8994 125.402H83.0983Z" fill="#009688"/>
<path d="M92.6198 121.607C93.6054 121.607 94.3907 121.932 94.9755 122.583C95.5669 123.227 95.8626 124.078 95.8626 125.136V130.99H93.4477V125.382C93.4477 124.784 93.3032 124.311 93.0141 123.963C92.7315 123.614 92.3438 123.44 91.851 123.44C91.4764 123.44 91.1249 123.552 90.7963 123.775C90.4678 123.992 90.1064 124.357 89.7121 124.869V130.99H87.2874V121.784H89.7121V123.076C90.1589 122.55 90.6156 122.175 91.0822 121.952C91.5553 121.722 92.0678 121.607 92.6198 121.607Z" fill="#009688"/>
<path d="M102.772 121.607C103.731 121.607 104.602 121.807 105.384 122.208C106.166 122.609 106.771 123.171 107.198 123.894C107.625 124.616 107.838 125.435 107.838 126.348C107.838 127.301 107.631 128.135 107.217 128.851C106.81 129.568 106.205 130.133 105.404 130.547C104.609 130.961 103.731 131.168 102.772 131.168C101.806 131.168 100.929 130.961 100.14 130.547C99.3518 130.133 98.7506 129.568 98.3366 128.851C97.9292 128.135 97.7255 127.301 97.7255 126.348C97.7255 125.421 97.9423 124.6 98.376 123.884C98.8097 123.161 99.4143 122.602 100.19 122.208C100.965 121.807 101.826 121.607 102.772 121.607ZM100.268 126.348C100.268 127.268 100.492 128.004 100.939 128.556C101.392 129.101 101.997 129.374 102.752 129.374C103.541 129.374 104.162 129.111 104.615 128.585C105.069 128.06 105.295 127.307 105.295 126.328C105.295 125.395 105.065 124.676 104.605 124.17C104.152 123.657 103.534 123.401 102.752 123.401C102.016 123.401 101.418 123.67 100.958 124.209C100.498 124.748 100.268 125.461 100.268 126.348Z" fill="#009688"/>
</svg>
